<?xml version="1.0" standalone="no"?>
<!DOCTYPE svg PUBLIC "-//W3C//DTD SVG 20010904//EN"
 "http://www.w3.org/TR/2001/REC-SVG-20010904/DTD/svg10.dtd">
<svg version="1.0" xmlns="http://www.w3.org/2000/svg"
 width="1000.000000pt" height="1000.000000pt" viewBox="0 0 1000.000000 1000.000000"
 preserveAspectRatio="xMidYMid meet">

<g transform="translate(0.000000,800.000000) scale(0.100000,-0.100000)"
fill="#000" stroke-opacity="0" stroke="none">
<path d="M0 4000 l0 -4000 4000 0 4000 0 0 4000 0 4000 -4000 0 -4000 0 0
-4000z m4325 3065 c366 -13 608 -56 664 -120 l28 -32 6 -213 c4 -117 7 -293 7
-391 l0 -178 29 -15 c50 -26 50 -66 0 -91 -15 -8 -34 -15 -40 -15 -7 0 -21 -7
-31 -17 -15 -13 -18 -32 -18 -109 0 -106 6 -117 73 -134 161 -41 283 -96 399
-181 171 -127 199 -201 218 -565 14 -296 14 -3736 -1 -3804 -14 -67 -53 -105
-160 -157 -265 -130 -780 -197 -1499 -197 -730 0 -1237 67 -1508 201 -103 50
-135 83 -151 153 -14 59 -15 3645 -1 3855 20 316 53 391 218 514 118 86 225
135 399 180 67 18 73 29 73 135 0 101 -7 117 -63 130 -29 7 -67 39 -67 56 0
11 26 38 52 55 14 9 17 59 22 365 3 195 6 369 6 387 0 48 49 99 113 118 131
39 421 70 687 74 85 1 157 4 159 7 3 2 55 2 115 -1 61 -2 183 -7 271 -10z"/>
</g>
</svg>
